<svg width="48" height="49" viewBox="0 0 48 49" fill="none" xmlns="http://www.w3.org/2000/svg">
<g clip-path="url(#clip0_63_694)">
<path d="M15.9809 37.65C15.9809 37.8379 15.7631 37.9883 15.4885 37.9883C15.1761 38.0165 14.9583 37.8661 14.9583 37.65C14.9583 37.4621 15.1761 37.3117 15.4507 37.3117C15.7347 37.2836 15.9809 37.4339 15.9809 37.65ZM13.0362 37.2272C12.9699 37.4151 13.1593 37.6312 13.4434 37.6876C13.6895 37.7816 13.9736 37.6876 14.0304 37.4997C14.0872 37.3117 13.9073 37.0956 13.6233 37.0111C13.3771 36.9453 13.1025 37.0392 13.0362 37.2272ZM17.2213 37.0674C16.9467 37.1332 16.7573 37.3117 16.7857 37.5279C16.8141 37.7158 17.0603 37.8379 17.3444 37.7722C17.619 37.7064 17.8083 37.5279 17.7799 37.3399C17.7515 37.1614 17.4959 37.0393 17.2213 37.0674ZM23.4515 1.06079C10.3188 1.06079 0.272705 10.9551 0.272705 23.9878C0.272705 34.4083 6.8817 43.3254 16.3218 46.4637C17.5337 46.6799 17.9598 45.9376 17.9598 45.3268C17.9598 44.7442 17.9314 41.5307 17.9314 39.5575C17.9314 39.5575 11.3035 40.9669 9.91161 36.7574C9.91161 36.7574 8.83221 34.023 7.27938 33.3183C7.27938 33.3183 5.1111 31.8431 7.43087 31.8713C7.43087 31.8713 9.78852 32.0592 11.0857 34.2955C13.1593 37.9225 16.6342 36.8795 17.9882 36.2594C18.206 34.756 18.8214 33.713 19.5032 33.0928C14.2103 32.5102 8.87008 31.7491 8.87008 22.7099C8.87008 20.1259 9.58968 18.8292 11.1046 17.1755C10.8585 16.5647 10.0536 14.0465 11.3508 10.7954C13.3297 10.1846 17.8841 13.3324 17.8841 13.3324C19.7778 12.8062 21.8135 12.5337 23.8303 12.5337C25.8471 12.5337 27.8828 12.8062 29.7765 13.3324C29.7765 13.3324 34.3308 10.1752 36.3097 10.7954C37.6069 14.0559 36.8021 16.5647 36.5559 17.1755C38.0709 18.8386 38.9988 20.1353 38.9988 22.7099C38.9988 31.7773 33.4218 32.5008 28.129 33.0928C29.0001 33.8351 29.7386 35.2446 29.7386 37.4527C29.7386 40.6192 29.7102 44.5375 29.7102 45.308C29.7102 45.9188 30.1457 46.6611 31.3482 46.445C40.8167 43.3254 47.2363 34.4083 47.2363 23.9878C47.2363 10.9551 36.5843 1.06079 23.4515 1.06079ZM9.47606 33.4687C9.35297 33.5626 9.38138 33.7787 9.54234 33.9573C9.69384 34.1076 9.91161 34.1734 10.0347 34.0512C10.1578 33.9573 10.1294 33.7411 9.96842 33.5626C9.81693 33.4123 9.59915 33.3465 9.47606 33.4687ZM8.45347 32.7076C8.38719 32.8297 8.48187 32.98 8.67124 33.074C8.82274 33.168 9.01211 33.1398 9.07839 33.0082C9.14467 32.8861 9.04998 32.7357 8.86061 32.6418C8.67124 32.5854 8.51975 32.6136 8.45347 32.7076ZM11.5213 36.0526C11.3698 36.1748 11.4266 36.4567 11.6443 36.6352C11.8621 36.8513 12.1367 36.8795 12.2598 36.7292C12.3829 36.607 12.3261 36.3251 12.1367 36.1466C11.9284 35.9305 11.6443 35.9023 11.5213 36.0526ZM10.4418 34.6714C10.2904 34.7653 10.2904 35.0097 10.4418 35.2258C10.5933 35.4419 10.849 35.5358 10.9721 35.4419C11.1236 35.3197 11.1236 35.0754 10.9721 34.8593C10.8395 34.6432 10.5933 34.5492 10.4418 34.6714Z" fill="#F5F5F5"/>
</g>
<defs>
<clipPath id="clip0_63_694">
<rect width="46.9636" height="48.1091" fill="white" transform="translate(0.272705 0.309082)"/>
</clipPath>
</defs>
</svg>
