<svg width="48" height="55" viewBox="0 0 48 55" fill="none" xmlns="http://www.w3.org/2000/svg">
<g clip-path="url(#clip0_63_692)">
<path d="M43.9364 3.94653H3.67133C1.82633 3.94653 0.327271 5.4712 0.327271 7.34285V47.657C0.327271 49.5287 1.82633 51.0534 3.67133 51.0534H43.9364C45.7814 51.0534 47.2909 49.5287 47.2909 47.657V7.34285C47.2909 5.4712 45.7814 3.94653 43.9364 3.94653ZM14.5212 44.3238H7.56051V21.8429H14.5317V44.3238H14.5212ZM11.0408 18.7726C8.80798 18.7726 7.00491 16.9535 7.00491 14.7243C7.00491 12.4952 8.80798 10.6761 11.0408 10.6761C13.2632 10.6761 15.0768 12.4952 15.0768 14.7243C15.0768 16.964 13.2737 18.7726 11.0408 18.7726ZM40.6133 44.3238H33.6526V33.3883C33.6526 30.7806 33.6002 27.4263 30.036 27.4263C26.4089 27.4263 25.8533 30.2654 25.8533 33.199V44.3238H18.8926V21.8429H25.5702V24.9133H25.6646C26.5976 23.1468 28.8724 21.2856 32.2584 21.2856C39.3029 21.2856 40.6133 25.9437 40.6133 32.0003V44.3238Z" fill="#F5F5F5"/>
</g>
<defs>
<clipPath id="clip0_63_692">
<rect width="46.9636" height="53.8364" fill="white" transform="translate(0.327271 0.581787)"/>
</clipPath>
</defs>
</svg>
