<svg width="201" height="59" viewBox="0 0 201 59" fill="none" xmlns="http://www.w3.org/2000/svg">
<g clip-path="url(#clip0_71_770)">
<path fill-rule="evenodd" clip-rule="evenodd" d="M200.41 21.3969C200.7 22.4376 199.628 23.6904 199.354 24.8177C199.771 25.7755 199.456 26.2663 198.755 27.4124C196.897 30.4453 196.126 34.3957 193.572 37.8215C193.67 35.7226 194.888 33.5208 196.22 31.6504C193.955 33.2534 192.752 36.2473 193.155 38.3851C193.479 38.4856 193.238 37.9973 193.572 37.8215C193.837 37.9044 193.562 38.5358 193.955 38.0927C194.112 38.3023 193.616 38.7391 193.469 38.7542C193.18 39.9342 193.856 40.8004 194.289 41.8009C194.358 41.9515 194.073 42.1021 194.108 42.2478C194.294 42.9909 195.429 43.7592 196.5 44.545C197.01 44.3944 197.596 44.7207 198.156 44.8714C196.564 45.6685 194.988 46.5472 193.115 45.5706C192.747 45.435 193.209 45.1676 193.111 44.9881C191.47 43.9914 191.425 42.7486 190.468 41.6452C190.802 41.3289 190.262 40.936 190.762 40.8481C190.404 39.3166 190.579 37.7048 190.433 36.1406C191.342 34.8276 191.376 33.6576 191.867 32.4086C191.965 32.0784 191.514 32.3646 191.553 32.0433C192.826 28.9489 193.499 26.0767 194.726 22.7828C193.951 22.7828 193.489 23.2535 192.801 23.4192C192.693 23.4431 192.343 23.1958 192.182 23.2636C190.944 23.7732 190.27 25.5859 188.994 26.0127C189.254 25.1717 190.286 24.6093 190.821 23.7255C189.671 23.9101 188.778 25.7265 187.703 26.378C188.35 24.6959 190.02 23.3991 191.268 21.7371C190.954 21.5425 190.723 21.8538 190.468 22.0246C190.635 21.1207 191.607 20.6927 192.088 20.0223C189.907 21.0329 188.528 23.7054 186.331 26.2613C186.69 26.2274 186.94 25.5031 187.26 25.1968C187.683 26.6253 184.926 28.1028 184.916 29.5703C185.5 29.3318 185.536 28.074 186.311 28.2685C185.83 28.8422 185.614 29.0318 185.438 29.6531C184.101 29.8816 184.361 31.8248 183.571 32.7827C183.679 33.045 183.527 33.3463 183.703 33.5986C181.556 37.219 180.127 41.1644 177.022 44.653C176.846 44.4872 177.189 44.2387 177.012 44.0692C176.359 43.6801 175.961 44.8915 175.371 44.9103C174.964 44.6429 175.234 44.2638 175.221 43.9337C173.283 44.0592 172.708 41.8398 172.507 40.6824C172.91 40.1966 173.098 39.4823 173.141 38.832C177.759 33.1128 179.891 27.5091 182.686 21.9028C182.317 22.0773 181.875 21.776 181.507 21.9179C182.259 21.1446 182.923 21.0241 183.438 20.2797C184.356 18.9779 184.11 16.7334 185.801 15.4894C186.542 15.9262 187.24 16.1108 188.227 16.9518C188.321 17.7038 188.3 18.4658 188.164 19.2114C188.375 19.303 188.645 19.755 188.778 19.3658C188.881 19.5754 188.773 19.814 188.552 20.0713C188.836 20.0751 189.033 19.5315 189.298 19.4537C189.696 19.5604 189.146 19.814 189.544 19.9156C189.891 19.8384 190.211 19.6743 190.476 19.4386C190.797 19.8378 191.008 19.5855 191.283 19.7311C192.112 18.7545 193.396 17.9184 194.795 17.9272C195.105 17.5833 194.996 17.1941 195.449 17.2431C195.837 17.3786 195.665 17.6021 195.454 17.8255C195.95 17.8983 196.048 17.5833 196.107 17.1414C196.917 18.0251 197.589 17.6071 198.096 18.0013C198.435 18.0979 198.146 17.6498 198.47 17.69C198.71 18.2385 198.971 18.7821 199.815 19.234C199.358 19.7499 199.92 20.1102 199.363 20.6437L199.934 21.053C199.787 21.412 199.722 21.7522 199.763 22.0823C200.026 22.1652 200.19 21.5827 200.411 21.3969" fill="#FFFFFE"/>
<path fill-rule="evenodd" clip-rule="evenodd" d="M198.588 29.0255C198.691 29.2351 198.578 29.4736 198.362 29.731C197.949 29.5703 198.5 29.264 198.588 29.0255ZM196.22 31.6504C194.888 33.5208 193.67 35.7226 193.572 37.8215C193.238 37.996 193.479 38.4868 193.155 38.3852C192.751 36.2474 193.955 33.2534 196.22 31.6504ZM178.526 21.2124C178.648 22.4614 176.507 23.944 176.649 25.3474C177.003 25.6299 177.185 24.8277 177.489 24.7988C176.801 25.7805 176.413 27.4036 175.391 28.0438C174.424 30.4741 173.053 32.8743 170.871 35.1778C170.685 35.4841 171.033 35.7076 171 35.9888C170.493 37.0395 169.791 36.8637 169.256 37.7675C168.876 37.4474 169.609 37.4135 169.413 37.1549C168.5 37.937 167.692 39.4296 166.819 40.4841C167.527 40.3384 168.066 39.1132 168.832 39.3317C168.234 40.7175 166.137 41.8247 164.947 43.0248C164.859 43.5106 164.638 43.9826 164.143 44.3228C163.877 44.0266 164.052 43.6663 164.314 43.2922C163.473 44.0303 162.55 44.2149 161.694 44.8664C161.519 44.7007 161.863 44.4521 161.686 44.2889C159.995 45.1626 158.05 44.1031 156.345 43.6136C154.219 39.9882 154.311 35.1489 157.913 31.1834C158.597 28.5548 160.428 25.8433 162.565 23.2824C164.785 20.6199 166.334 16.9179 169.251 15.9802C170.902 17.1991 172.183 18.472 172.164 19.9495C169.403 21.9455 167.148 24.3708 164.677 27.5442C165.242 27.8945 166.289 26.7182 166.918 25.6926C167.069 26.9906 164.088 28.0928 164.427 29.6682C163.522 30.4691 163.193 31.0365 162.456 32.1462C162.741 32.3496 162.835 31.3491 163.159 31.7859C162.142 33.8798 160.712 35.0322 159.696 37.0821C160.153 36.9265 160.492 36.0716 160.904 35.6448C160.83 36.7959 159.819 38.0927 159.539 39.2789C160.506 38.768 161.372 38.4002 162.349 37.8404C163.715 37.0583 164.618 35.6925 165.985 34.687C166.972 33.9539 168.518 33.6564 169.133 32.1939C169.428 31.9215 169.766 31.9466 170.066 31.7131C172.684 28.738 175.013 25.4742 176.226 22.1551C176.821 22.0095 176.934 21.5727 177.72 20.9212C177.41 20.581 177.272 21.2952 176.963 20.9551C177.095 20.3475 177.779 20.1002 178.197 19.6771C178.845 19.9834 177.395 21.2952 177.543 21.9518C177.942 22.1313 178.158 21.2086 178.524 21.2124M175.302 26.9743C175.849 26.4408 176.349 25.1968 176.261 24.4875C175.927 25.3185 175.361 26.1809 175.302 26.9743ZM172.331 30.0222C172.562 29.4875 173.613 28.8221 173.087 28.4029C172.905 28.9339 172.306 29.5264 172.331 30.0222ZM176.29 29.9934C176.374 30.5181 176.019 30.97 175.553 31.1934C175.481 30.8419 176.099 30.3863 176.29 29.9934ZM170.601 37.7224C170.714 38.3023 170.076 38.4191 169.958 38.9902C169.58 38.6613 170.449 38.1366 170.601 37.7224Z" fill="#FFFFFE"/>
<path fill-rule="evenodd" clip-rule="evenodd" d="M169.388 38.5797C169.796 38.7203 169.217 39.3417 169.015 38.8898C169.133 38.7442 169.231 38.4969 169.388 38.5797ZM158.187 7.43151C159.976 7.46666 161.651 9.57559 161.774 10.8824C160.59 11.6356 159.318 11.9758 158.94 13.7445C157.908 11.7611 158.045 9.59944 158.188 7.43276M151.906 23.1029C152.416 23.8561 151.964 24.765 152.294 25.547C152.121 25.9412 151.93 26.6693 151.487 26.84C151.797 27.199 151.969 26.6894 152.294 27.1312C151.827 27.9848 151.079 28.8811 151.335 29.6193C148.333 33.7104 144.778 38.9965 143.097 43.5885C142.586 43.3939 142.066 43.1466 141.681 43.7253C141.088 43.4868 141.725 43.0537 141.196 42.8014C140.68 42.5541 140.292 43.1127 139.834 43.2633C139.216 42.3834 138.98 41.4507 138.475 40.5518C139.448 37.5931 141.274 34.4974 142.522 31.4947C143.278 30.1578 144.246 29.0506 144.9 27.8656C145.087 27.5204 145.057 27.125 145.239 26.8111C146.005 25.4742 147.06 24.3858 147.588 23.0251C147.902 22.2041 147.695 21.1396 148.854 20.9061C150.136 21.466 150.869 22.1401 151.906 23.1029ZM143.936 39.8715C144.841 38.399 146.432 36.9905 146.609 35.4452C145.548 36.7959 144.292 38.2734 143.936 39.8715ZM151.989 14.0747C151.526 14.2881 151.629 14.9107 151.128 15.0413C150.834 14.3081 151.251 13.4671 150.107 12.8645C147.032 12.8695 144.567 16.6845 141.598 18.2775C140.307 18.9729 138.494 19.0307 137.257 21.2086C138.067 20.9111 138.533 19.6144 139.546 19.6822C137.993 22.1112 135.87 24.6482 133.792 26.5048C134.362 25.0223 135.704 24.0118 136.518 22.4087C134.396 24.4587 132.335 26.8638 130.35 29.7988C130.84 29.4975 131.287 28.9527 131.749 28.4958C131.705 29.7498 130.256 31.2324 129.779 32.558C130.29 32.5831 130.644 31.6504 131.076 31.1834C131.013 31.5387 130.782 32.3985 130.413 32.2918C129.395 34.3958 129.651 36.3051 129.013 38.3513C129.185 38.3839 129.337 38.2785 129.479 38.1128C129.656 39.0266 128.355 39.7158 128.124 40.7464C127.908 42.5101 127.952 44.9731 125.82 45.8631C125.254 45.6735 124.729 45.7263 124.268 46.1882C123.899 45.838 123.595 45.843 123.32 46.0815C121.929 45.4112 122.248 44.4684 121.261 43.7341C121.32 42.9432 121.001 42.2139 121.227 41.4017C119.547 41.0427 118.284 39.7836 117.414 38.6563C117.527 38.4768 117.674 38.5396 117.789 38.3462C116.968 37.5002 117.11 36.5047 116.427 35.6348C116.639 34.269 116.383 32.9722 116.3 31.6504C116.432 31.2562 116.079 31.8876 115.946 31.5374C115.917 31.2361 115.779 30.9512 116.212 30.5771C115.877 30.7365 115.812 30.5269 115.735 30.2369C114.31 31.9316 114.261 33.4128 112.72 35.1289C112.639 35.2795 112.98 35.3674 112.865 35.523C110.931 39.1722 108.071 41.7369 105.143 43.2345C104.775 43.1905 105.626 43.1077 105.729 42.6457C105.07 42.1411 103.719 42.6307 103.543 41.6503C103.193 41.3829 102.937 41.7419 102.599 41.5423C102.068 40.4 101.183 39.3179 101.042 38.1128C101.232 36.3051 101.435 34.4924 101.695 32.6697C103.675 29.682 104.456 26.3341 106.77 23.2008C107.461 22.2618 108.164 20.9312 109.034 19.9244C110.629 18.0791 112.595 15.7066 114.767 15.1103C116.152 16.1208 117.699 17.1012 118.628 18.1808C118.829 18.457 118.81 18.7633 118.691 19.0897C119.09 19.1185 119.326 18.1419 119.816 18.7495C119.9 18.511 120.451 18.2047 120.042 18.0452C120.216 17.7151 120.545 18.3515 120.701 17.9423C121.085 18.5649 121.487 18.3691 121.939 18.8373C123.02 19.9445 122.273 21.2325 122.701 22.5531C122.312 23.0351 122.135 23.477 122.155 23.895C122.564 24.0557 122.347 23.2197 122.667 23.3941C123.152 24.2641 122.091 25.3775 122.613 26.2412C122.386 26.5575 122.43 26.83 122.081 27.1601C122.018 27.3107 122.263 27.4087 122.395 27.5292C121.487 28.8661 121.772 30.0172 120.893 31.3541C121.501 31.5387 121.295 30.547 121.727 30.2218C121.576 32.6371 120.206 35.2406 120.701 37.5592C121.305 37.996 121.905 38.4291 122.51 38.8609C123.177 38.7392 123.515 37.5002 123.64 36.9365C125.952 31.1545 130.438 25.4303 132.938 19.5416C131.38 19.9885 129.882 20.8396 128.036 19.4738C127.952 18.7633 126.866 18.2059 126.876 17.4816C130.168 15.7317 133.444 13.8562 136.907 13.1658C139.132 8.9881 141.421 4.5518 143.75 0.499634C147.042 2.60229 143.416 5.77951 143.813 8.33659C142.915 9.25423 143.2 9.98859 143.19 10.7707C143.465 10.9125 143.681 10.6589 143.995 11.0619C144.321 10.7568 144.713 11.0481 145.175 11.0431C145.313 11.0431 145.484 10.7995 145.642 10.8045C145.774 10.8096 145.897 11.077 146.024 11.0807C147.184 11.1058 149.064 10.8723 150.23 11.5088C151.3 12.0963 151.944 13.1281 151.989 14.0747ZM132.391 24.0544C133.292 22.5481 134.967 21.9455 134.987 20.7266C134.161 21.7421 132.889 22.7539 132.392 24.0557M120.913 32.5203C121.05 32.2479 120.814 32.0345 120.712 31.796C120.368 32.0194 120.966 32.0922 120.623 32.3107C120.721 32.3797 120.815 32.4462 120.913 32.5203ZM118.343 19.5604C117.174 19.9834 115.927 19.9207 114.929 21.4271C114.182 21.6693 113.49 22.4225 113.279 23.2724C110.916 24.9294 109.977 27.2681 108.272 29.4787C108.484 29.3707 108.651 29.0305 108.882 29.0456C108.576 30.6436 106.617 32.0044 106.303 33.5396C106.224 33.6375 106.175 33.812 106.332 33.7003C106.519 33.2434 106.598 33.1756 107.005 33.1806C107.039 33.8999 105.979 34.7837 106.19 35.4778C110.97 31.6215 115.495 25.1051 118.343 19.5604ZM107.443 30.606C107.648 30.3047 108.316 30.154 108.229 29.7348C107.982 29.7975 107.354 30.193 107.443 30.606Z" fill="#FFFFFE"/>
<path fill-rule="evenodd" clip-rule="evenodd" d="M134.313 28.1757C133.734 29.1335 133.371 30.0511 132.492 31.0478C132.462 30.8872 132.436 30.7215 132.413 30.562C133.007 29.8716 133.905 28.2874 134.313 28.1757ZM110.527 12.3448C110.494 12.7679 110.281 13.3792 109.889 13.6127C107.825 12.685 106.224 14.6584 104.441 15.4643C104.309 15.7078 104.333 15.9263 104.053 16.1924C103.7 16.397 104.201 15.7907 104.304 15.6539C104.082 15.3137 104.004 15.9062 103.783 15.566C102.176 17.1552 100.403 17.6461 98.8406 19.5077C100.496 18.6076 102.083 17.2619 103.693 16.0807C103.394 17.2619 101.656 17.9235 100.736 18.7093C98.7087 21.7848 95.3532 24.8528 93.0694 28.3363C93.1272 27.8995 93.0832 27.607 92.543 27.666C92.69 27.2819 92.9802 26.8739 92.9513 26.5186C92.494 27.4526 90.6222 29.3268 91.4475 30.3423C91.6925 30.2695 91.9488 29.4875 92.352 29.1121C92.244 30.0662 90.8332 31.4169 90.3031 32.6898C90.8232 32.7438 90.9413 32.0195 91.2315 31.6253C90.9312 33.4819 89.837 35.4603 89.0255 37.3985C88.7705 37.6031 89.5267 37.6496 89.2717 37.8605C88.7654 39.4396 88.0682 41.0527 87.3308 42.6708C86.5457 42.3193 86.8446 41.8009 86.7027 41.349C86.1512 41.7858 85.6713 42.6608 85.0168 42.4474C84.949 42.234 84.9829 42.0043 84.9138 41.7909C84.6286 41.3967 84.4917 41.9603 84.2065 41.5674C83.6952 41.0088 83.5533 40.3912 83.003 39.8376C83.4553 38.8609 82.4377 38.2483 82.7769 37.3684C82.8749 37.1123 83.2141 36.9026 83.3322 36.6114C83.6462 35.8432 83.8422 34.9833 84.2166 34.2213C86.1763 30.2306 86.9049 25.6537 88.7994 21.6555C88.9225 20.8873 88.7014 20.168 88.3672 19.4688C88.8735 18.9189 89.5556 19.5165 90.0569 18.9541C90.7151 19.6684 91.8056 19.4349 91.9639 20.3287C92.5731 20.0851 93.1523 19.6382 93.6925 18.9729C97.225 17.8507 100.432 14.6584 103.94 13.3704C104.152 13.1181 103.753 12.9562 104.166 12.67C105.031 12.2093 106.77 11.6783 107.83 11.849C108.858 12.0097 109.639 11.5138 110.527 12.3448ZM100.063 16.0618C99.676 15.7317 99.4599 16.505 99.1257 16.5426C99.5089 16.8012 99.7476 16.2075 100.063 16.0618ZM98.0353 19.2152C98.2753 18.8173 98.6835 18.8022 98.4926 18.3942C98.3846 18.6616 97.8733 18.9918 98.0353 19.2152ZM94.945 22.6171C95.5643 21.5426 96.7037 20.94 97.0529 19.9533C96.3645 20.2747 95.053 22.1552 94.945 22.6171Z" fill="#FFFFFE"/>
<path fill-rule="evenodd" clip-rule="evenodd" d="M106.922 15.6639C106.323 17.0774 104.353 17.341 103.261 18.6516C102.927 19.0558 102.452 19.8818 101.823 20.212C101.71 20.2697 101.371 20.1291 101.232 20.222C100.812 20.4982 100.285 21.2263 99.6948 21.7133C99.0038 22.287 98.1282 22.5155 98.1621 23.2046C97.622 23.1858 97.2388 24.1185 96.7677 24.5064C98.5365 20.6149 102.132 19.0696 104.829 16.3192C105.369 16.7184 106.223 15.8874 106.922 15.6639ZM101.597 20.9162C101.031 21.5188 101.082 22.2581 100.417 22.5205C100.648 22.0146 100.771 20.9501 101.597 20.9162Z" fill="#FFFFFE"/>
<path fill-rule="evenodd" clip-rule="evenodd" d="M98.3934 23.084C98.4034 23.4142 98.1924 23.7833 97.8934 24.1624C97.5542 23.6326 98.0064 23.3903 98.3934 23.084ZM97.4951 24.308C97.5492 24.672 97.3029 25.4691 96.8017 25.2495C96.7577 24.8427 97.259 24.5992 97.4951 24.308ZM96.2866 25.7466C96.6987 25.906 96.1585 26.2763 96.0354 26.2901C95.8143 26.1985 96.0454 25.6349 96.2866 25.7466ZM86.4803 19.2591C86.7366 19.4725 86.8987 19.0746 87.1889 19.4825C85.7253 22.2518 83.9955 27.9384 80.493 29.3744C80.2669 29.633 80.493 29.8188 80.2669 30.0812C79.4026 30.6498 78.5383 31.2223 77.7029 31.9805C75.316 31.9177 74.9027 35.7502 73.3902 37.2428C73.0058 36.0753 73.8425 34.7196 74.1364 33.4517C72.0586 35.5029 72.2395 37.9232 72.6239 39.8664C74.1063 40.484 76.0233 39.4296 77.6979 38.3261C79.2104 37.3294 80.7631 35.8582 82.3108 34.4346C82.5319 34.7359 82.3108 35.105 82.6299 35.3862C80.488 37.6307 80.0848 40.6635 78.164 42.8453C78.0961 42.9909 78.3423 43.0926 78.4743 43.2143C77.5798 43.7667 76.7406 44.6919 75.708 44.3943C75.2168 44.8274 74.7457 45.4162 74.1126 44.9781C74.3575 44.7358 74.8877 44.6818 74.8575 44.3617C73.8852 44.6241 72.5096 44.4383 71.2722 44.0843C70.5988 43.8897 70.693 43.3461 70.2169 42.7436C69.5285 41.8774 68.526 41.4356 69.0963 40.4978C68.4682 40.2593 68.7773 39.8815 68.2798 39.6241C68.547 39.3635 68.704 39.0103 68.7182 38.6374C68.1479 37.1687 69.0172 35.474 68.9783 33.9237C70.1516 31.5725 71.5322 28.8321 72.4857 26.781C73.3023 26.2713 73.154 25.6976 73.9442 24.8038C74.1264 24.5515 73.8563 24.3707 73.8362 24.1511C75.3399 22.3396 76.2833 20.3286 77.7959 18.7783C78.4944 17.0096 80.7883 16.4698 82.0797 14.9395C82.753 15.1153 83.3221 14.6295 83.9616 14.5604C84.3246 14.7261 83.9716 14.8667 83.8485 14.9144C84.1525 14.9345 84.2756 15.4304 84.9188 15.8296C86.7655 16.1497 86.6776 18.0829 86.4816 19.2591" fill="#FFFFFE"/>
<path fill-rule="evenodd" clip-rule="evenodd" d="M74.7494 36.7809C75.0346 36.9943 74.5195 37.5592 74.2884 37.6031C74.1263 37.3784 74.6426 37.0483 74.7494 36.7809ZM70.7859 26.7133C70.9769 27.1263 70.2947 27.6799 70.0046 28.1707C69.8287 27.7389 70.4518 26.9706 70.7859 26.7133Z" fill="#FFFFFE"/>
<path fill-rule="evenodd" clip-rule="evenodd" d="M7.08151 23.123C7.22849 22.9849 7.42447 23.113 7.58275 23.0251C9.04628 20.7806 10.746 18.8662 11.8816 17.1791C10.0978 18.7482 8.56514 21.4359 7.08277 23.1217M22.6351 34.9205C21.7256 36.3189 20.1528 38.0889 19.6528 39.5124C18.4883 40.1238 17.5209 42.0043 16.3263 42.4512C14.4205 44.9869 12.2635 45.9409 10.1417 47.087C8.43324 46.7858 6.96342 47.9859 5.24362 47.5967C4.74865 47.3695 5.08659 47.0092 5.18583 46.6891C3.93712 46.3828 2.93086 45.848 2.22862 44.5601C1.72612 43.6374 1.60049 41.713 1.15704 40.4677C0.959804 39.9204 0.734936 39.2062 0.655792 38.3801C0.533936 37.0771 0.773879 36.1695 0.533936 34.9732C2.01631 28.2686 5.29387 19.4976 11.8653 12.8407C14.6115 10.0664 17.7169 6.77121 20.9543 5.25102C21.8085 5.21587 22.8789 4.8669 24.0246 5.43932C25.272 6.06698 26.3675 7.16036 26.9868 8.15081C26.2305 8.70064 25.375 8.61277 24.5446 8.70064C23.7746 9.15758 23.0221 9.74507 22.2017 9.90072C17.6089 13.3754 13.0638 17.1753 8.8792 23.2385C8.93825 24.6532 8.05385 25.5131 7.3516 26.9028C6.82147 27.9472 6.59534 29.2879 6.15314 30.508C5.32276 32.8266 4.61549 35.1201 4.43334 37.2039C4.67956 37.3357 4.82277 36.801 5.09161 37.1022C4.22731 37.8504 5.09161 38.3262 4.22731 39.0743C4.50243 40.42 4.72353 41.7808 4.70845 43.1755C6.79634 43.6374 8.59027 41.2084 11.0211 39.3518C11.4872 38.9965 12.1555 38.5936 12.9809 37.8793C16.1642 35.1389 20.6151 29.9833 22.2897 25.8282C19.6377 25.9462 17.3388 28.3213 14.7899 29.0845C14.2585 28.5698 13.8062 28.5548 13.3703 28.6376C12.0035 27.7338 12.8678 26.4898 11.8615 25.532C17.2006 20.8873 22.963 18.924 28.6124 16.2464C31.1776 15.9313 33.7165 15.4404 36.4388 16.1158C36.9338 16.5527 37.381 16.7133 37.8182 16.815C38.4626 17.6661 39.337 18.472 38.7516 19.5127C41.5568 18.0302 44.161 15.2948 47.181 15.1919C48.5466 16.1208 49.8983 17.0535 50.0993 18.1607C49.338 19.6822 48.8368 20.9212 47.5252 22.651C47.5692 22.8694 47.1609 23.1569 47.6282 23.3075C47.1081 24.352 46.2087 25.95 45.0592 26.791C44.9964 27.189 45.4424 26.4308 45.6496 26.786C45.1233 27.3748 44.6811 28.4807 44.0416 28.3702C43.9788 28.074 44.1999 27.7338 44.4801 27.3836C43.3796 28.8071 41.7628 29.5414 41.1297 30.7415C41.0455 30.5909 41.0995 30.4152 41.2176 30.2319C38.2704 33.0978 35.1612 34.9393 31.9628 36.2612C32.0017 37.588 31.9 38.9438 31.9289 40.2744C35.2491 39.9393 38.2704 37.6885 41.3947 36.1306C42.5542 34.9732 43.9449 34.4636 45.1082 33.4631C46.6119 32.1701 47.6433 31.019 49.2702 29.3958C50.0013 28.6615 50.7865 28.2045 51.1797 27.5932C52.0942 26.1596 52.2852 24.4536 53.3316 23.0841C54.005 20.7266 56.0928 18.1469 55.8228 15.935C56.7561 15.6099 57.8805 16.4849 59.0011 17.3598C58.8428 17.69 59.079 17.9624 59.0639 18.2674C59.8214 17.9134 60.5626 17.4515 61.3101 16.9996C61.3879 17.1552 61.339 17.331 61.2221 17.5142C63.9143 16.1246 67.3225 14.5165 70.2357 17.9473C70.0196 18.2348 70.4116 18.4243 70.1076 18.7193C73.1238 20.3236 72.3776 23.3552 70.1277 25.2269C69.4933 26.8199 67.8438 28.7255 67.0913 30.5419C65.8602 32.7814 63.4231 34.1949 63.1869 36.2411C65.2748 34.6531 66.1931 31.9906 67.9079 29.8327C67.5536 31.6115 66.0009 33.5798 64.9205 35.4741C64.6203 35.5331 64.3753 35.921 64.0562 35.8582C63.9871 36.9704 63.1618 37.175 63.1668 38.2483C63.3829 38.3651 63.5148 37.9621 63.7321 38.0789C63.9143 37.1248 64.8715 36.1582 65.1115 35.6097C65.6177 36.2273 65.0826 36.5963 64.6454 37.4374C65.2987 37.4751 65.7697 36.393 66.3941 36.2423C65.4318 38.4191 64.4092 40.7514 62.4206 42.0382C61.6731 41.5724 61.0387 41.8247 60.3905 42.0193C58.5438 40.9146 59.1581 39.4296 58.7548 38.1027C59.3101 36.29 60.6078 34.8665 61.2309 32.9559C61.7711 31.2863 62.1254 29.5892 62.8816 27.9422C63.1379 27.3748 63.359 26.8149 63.2799 26.2123C64.2183 24.6972 64.9255 22.5832 65.6328 20.8383C63.8301 20.2897 62.5424 22.9962 60.9558 23.8172C59.9634 25.5119 58.0325 26.4847 56.9182 28.1179C55.8027 29.7498 55.4735 31.6742 54.2801 33.2873C54.015 33.6376 54.3881 33.8849 54.3391 34.1962C53.4007 34.5941 53.1256 35.4389 52.5754 36.393C52.9736 36.3967 53.1947 35.3184 53.652 35.7226C52.8103 37.4801 51.3869 39.7359 50.7726 42.0143C49.9473 42.8353 48.8518 41.9641 47.8393 41.6352C46.7237 40.892 46.7539 39.9694 45.6836 39.2149C45.8695 38.2973 45.9235 37.3985 45.7665 36.5336C47.0981 34.6581 48.0076 32.8454 49.1081 31.0039C47.1961 32.5203 45.4675 35.1628 43.5178 36.4206C43.7087 36.1884 43.803 35.9599 43.7037 35.7703C43.6158 35.9988 43.0882 36.3001 43.4525 36.4608C43.3055 36.5524 43.1585 36.6353 43.0065 36.7118C42.7552 37.0583 42.5002 37.4023 42.2452 37.7487C42.0819 37.8404 42.4839 38.1504 42.5982 38.0688C40.3633 41.2611 37.278 44.5839 33.9816 45.2116C33.9276 44.5413 32.7191 44.3228 32.2731 44.5588C31.0784 43.5646 30.9063 44.2889 29.5169 43.1516C29.6098 43.0261 29.7028 42.8993 29.7958 42.7775L28.7455 42.0193C27.1539 39.4296 27.3448 36.5625 28.0822 33.6087C28.2732 33.2195 28.5546 33.394 28.7606 33.089C29.8988 28.4958 34.5369 24.5365 37.7453 20.0851C37.7001 19.2303 37.6951 18.3653 37.2629 17.5732C34.6122 16.0957 32.7404 19.5466 30.4641 20.4655C29.4327 22.1213 28.14 22.1213 27.0647 23.5021C26.9076 23.3992 26.7355 23.1908 26.6124 23.3213C26.0823 24.3469 26.8097 25.183 25.5723 26.319C25.3562 26.6743 26.0785 26.1734 25.8612 26.5237C25.5371 27.4124 24.5359 28.3991 23.9416 29.328C24.6879 29.3808 24.3537 28.6954 24.8989 28.428C25.0459 28.3514 24.3537 29.2402 24.2984 29.4398C24.2494 29.6042 24.5245 29.6632 24.4467 29.8327C23.8926 31.024 23.0221 32.2718 22.6728 33.03C24.7167 31.9416 25.8712 27.7288 27.3348 25.7115C27.1966 27.2919 26.3423 28.9828 25.5861 30.6574C24.6137 31.9504 23.6062 33.2484 23.7293 34.3707C23.2092 34.9694 22.7419 35.9461 22.1779 36.2813C22.4869 35.8042 22.414 35.3862 22.6351 34.9205ZM22.6339 34.9155C22.713 34.8025 22.7758 34.697 22.8399 34.5891C22.7596 34.6901 22.6905 34.7995 22.6339 34.9155ZM45.3142 19.9094C43.9939 19.5893 42.2992 21.4497 40.8156 21.8576C37.6172 24.7097 35.2152 27.2656 32.763 31.211C37.131 28.6251 41.6108 25.006 45.3142 19.9094ZM20.3262 36.8185C20.7684 35.7603 21.3286 35.5846 21.7558 34.6757C21.0347 34.8941 20.3312 36.1921 20.3262 36.8185ZM19.0058 37.0232C19.5008 37.4876 19.9882 36.2022 19.7721 35.9875C19.3488 36.4771 19.3928 36.7156 19.0058 37.0232ZM13.3515 43.9136C15.5474 41.1142 18.1956 38.8258 19.5008 35.3611C17.4908 38.0437 14.526 40.9874 13.3515 43.9136ZM6.39309 25.6299C6.5162 25.0851 7.41567 24.4147 7.21467 23.9189C6.78127 24.5114 6.20214 25.134 6.39309 25.6299Z" fill="#FFFFFE"/>
<path fill-rule="evenodd" clip-rule="evenodd" d="M53.6909 34.8815C54.103 35.0472 53.4937 35.5029 53.3655 35.518C53.2537 35.3862 53.3957 34.8024 53.6909 34.8815ZM48.3116 21.781C48.5817 21.5387 48.8908 21.5337 49.2589 21.8827C48.2966 22.3208 48.779 23.5837 47.6885 24.2151C47.4272 23.477 48.6659 22.5053 48.3116 21.781ZM43.7037 35.7703C43.803 35.9598 43.7087 36.1883 43.5165 36.4205C43.4964 36.4356 43.4726 36.4457 43.4537 36.4607C43.0894 36.3 43.6145 35.9988 43.7037 35.7703Z" fill="#FFFFFE"/>
<path fill-rule="evenodd" clip-rule="evenodd" d="M43.5165 36.4219C43.5051 36.439 43.4925 36.4554 43.4788 36.4708C43.4675 36.4658 43.4625 36.4658 43.4537 36.4608C43.4725 36.4457 43.4964 36.4357 43.5165 36.4219ZM22.6339 34.9155C22.6841 34.8138 22.7519 34.7021 22.8411 34.5891C22.7771 34.6971 22.713 34.8025 22.6339 34.9155ZM197.287 53.1126C192.699 52.667 188.61 52.4435 184.5 52.6808C182.745 52.7812 180.975 52.7749 179.212 52.7686C174.546 52.7548 169.878 52.7235 165.212 52.677C161.677 52.6393 158.151 52.4159 154.604 52.495C149.167 52.6168 143.716 52.4573 138.27 52.4347C135.937 52.4163 133.604 52.4322 131.271 52.4824C128.023 52.5653 124.78 52.7096 121.535 52.8251C118.076 52.9507 114.616 53.0737 111.158 53.1955C108.122 53.3022 105.087 53.4741 102.049 53.4955C97.2476 53.5294 92.4424 53.4415 87.641 53.4428C82.3371 53.4428 77.0358 53.4992 71.7319 53.5055C66.1466 53.5156 60.5588 53.503 54.9735 53.4817C53.7009 53.4766 52.4258 53.3637 51.1545 53.3637C48.3279 53.3637 45.5152 53.6775 42.6786 53.4842C42.0454 53.4415 41.406 53.4905 40.7691 53.4992C37.5192 53.5457 34.2692 53.6022 31.0181 53.6336C30.1726 53.6411 29.3221 53.5331 28.4767 53.5457C25.0157 53.5884 21.5547 53.6612 18.0938 53.7164C16.8237 53.7378 15.5524 53.7315 14.2836 53.7503C13.7182 53.7578 13.1479 53.7629 12.5901 53.8256C9.64136 54.1684 6.67457 54.3332 3.70593 54.319C3.7788 54.9843 3.82905 55.6207 3.92452 56.2522C4.02251 56.8961 4.15441 57.5389 4.84786 58.1665C5.66066 58.3259 6.62546 58.6712 7.58021 58.6649C9.12288 58.6561 10.6605 58.4301 12.1957 58.2707C13.5901 58.1263 14.9795 57.9393 16.3765 57.7937C16.8639 57.7435 17.3815 57.8251 17.8551 57.7385C21.4542 57.0769 25.1539 57.1861 28.8008 56.8974C29.2179 56.8635 29.6462 56.9037 30.0696 56.9137C31.1965 56.9363 32.3258 57.0129 33.4489 56.9765C37.5418 56.8522 41.6271 56.522 45.7313 56.9263C47.3443 57.0869 48.9435 57.3782 50.5766 57.1823C50.8467 57.1497 51.1419 57.2137 51.4208 57.2552C54.3692 57.7008 57.3302 57.7723 60.305 57.6506C61.3615 57.6066 62.4369 57.5665 63.4858 57.6694C65.5511 57.8753 67.5787 57.6606 69.6088 57.5062C72.5484 57.3217 76.2958 56.9514 80.1374 56.6162C80.694 56.571 81.2944 56.5183 81.8208 56.6413C83.0808 56.9376 84.3409 56.8572 85.6109 56.871C87.1624 56.8886 88.7189 56.9338 90.2666 57.0568C91.9537 57.1911 93.6271 57.4861 95.3155 57.6104C100.681 58.0046 106.053 58.2958 111.428 58.0297C113.187 57.9418 114.942 57.7887 116.702 57.6908C118.883 57.5677 121.075 57.3041 123.249 57.402C127.164 57.5778 131.007 57.112 134.882 56.9677C137.419 56.8735 139.948 56.6765 142.48 56.5472C144.877 56.4241 147.276 56.3363 149.672 56.2195C150.939 56.1547 152.205 56.0786 153.471 55.991C155.368 55.8643 157.262 55.7224 159.159 55.5969C160.353 55.5191 161.546 55.4475 162.742 55.3948C165.137 55.2856 167.539 55.2554 169.922 55.0684C171.265 54.9642 172.585 54.8989 173.934 54.9705C175.203 55.0383 176.498 55.1199 177.742 54.9793C179.987 54.7257 182.237 54.6529 184.498 54.6315C185.204 54.6253 185.912 54.6253 186.615 54.5776C188.652 54.442 190.383 53.9336 192.414 53.7453C193.636 53.6323 194.559 53.6926 195.826 53.4854C196.059 53.4478 196.689 53.4114 197.287 53.1126ZM121.535 55.7827L120.831 56.1517L119.655 56.222C119.655 56.222 117.915 55.9634 119.467 55.7036H120.501L121.535 55.7827ZM129.297 56.0425L127.984 56.4116L125.797 56.4819C125.797 56.4819 122.558 56.222 125.447 55.9634H127.371L129.297 56.0425Z" fill="#FFFFFE"/>
<path fill-rule="evenodd" clip-rule="evenodd" d="M80.9352 57.8125H82.8597L84.7843 57.8928L83.4715 58.2619L81.2844 58.3322C81.2844 58.3322 78.047 58.0736 80.9352 57.8125ZM35.1938 56.9626L39.5656 56.355L43.9499 55.8265L41.0203 56.6048L36.0619 57.3656C36.0619 57.3656 28.6739 58.1313 35.1951 56.9626M91.9525 57.4823L96.3644 57.3681L100.78 57.3342L97.7815 57.7798L92.769 57.9807C92.769 57.9807 85.3396 57.9129 91.9525 57.4823ZM54.0941 57.7384L50.1859 57.9418L46.2639 57.943L48.8819 56.8885L53.3165 56.4818C53.3165 56.4818 59.9256 56.7881 54.0941 57.7384ZM26.7895 57.8125H34.1298L41.4701 57.9455L36.4664 58.5481L28.1249 58.6661C28.1249 58.6661 15.7798 58.2393 26.7895 57.8125ZM76.2418 57.2927H77.2744L78.3096 57.3743L77.6048 57.7422L76.429 57.8125C76.429 57.8125 74.6891 57.5539 76.2406 57.294M38.6146 57.1484H39.6485L40.6824 57.2287L39.9776 57.5965L38.8018 57.6668C38.8018 57.6668 37.0631 57.407 38.6146 57.1484ZM17.6139 58.2393H18.6478L19.6829 58.3196L18.9769 58.6874L17.8011 58.7577C17.8011 58.7577 16.0624 58.4991 17.6139 58.2393Z" fill="#FFFFFE"/>
</g>
<defs>
<clipPath id="clip0_71_770">
<rect width="201" height="59" fill="white"/>
</clipPath>
</defs>
</svg>
