<svg width="220" height="211" viewBox="0 0 220 211" fill="none" xmlns="http://www.w3.org/2000/svg">
<path d="M119.31 103.6L185.01 211H122.31L68.0102 118L51.5102 211H0.210157L37.4102 0.399993H88.7102L72.5102 92.8L159.21 0.399993H219.21L119.31 103.6Z" fill="black"/>
<path d="M119.31 103.6L112.125 96.6447L106.737 102.21L110.78 108.818L119.31 103.6ZM185.01 211V221H202.85L193.541 205.782L185.01 211ZM122.31 211L113.674 216.042L116.569 221H122.31V211ZM68.0102 118L76.6459 112.958L62.9196 89.4486L58.1639 116.253L68.0102 118ZM51.5102 211V221H59.8921L61.3564 212.747L51.5102 211ZM0.210157 211L-9.6374 209.261L-11.711 221H0.210157V211ZM37.4102 0.399993V-9.60001H29.0217L27.5626 -1.33946L37.4102 0.399993ZM88.7102 0.399993L98.5599 2.1269L100.616 -9.60001H88.7102V0.399993ZM72.5102 92.8L62.6604 91.0731L56.8737 124.079L79.8026 99.6426L72.5102 92.8ZM159.21 0.399993V-9.60001H154.88L151.918 -6.44257L159.21 0.399993ZM219.21 0.399993L226.395 7.35525L242.808 -9.60001H219.21V0.399993ZM110.78 108.818L176.48 216.218L193.541 205.782L127.841 98.3816L110.78 108.818ZM185.01 201H122.31V221H185.01V201ZM130.946 205.958L76.6459 112.958L59.3744 123.042L113.674 216.042L130.946 205.958ZM58.1639 116.253L41.6639 209.253L61.3564 212.747L77.8564 119.747L58.1639 116.253ZM51.5102 201H0.210157V221H51.5102V201ZM10.0577 212.739L47.2577 2.13945L27.5626 -1.33946L-9.6374 209.261L10.0577 212.739ZM37.4102 10.4H88.7102V-9.60001H37.4102V10.4ZM78.8604 -1.32691L62.6604 91.0731L82.3599 94.5269L98.5599 2.1269L78.8604 -1.32691ZM79.8026 99.6426L166.503 7.24255L151.918 -6.44257L65.2177 85.9574L79.8026 99.6426ZM159.21 10.4H219.21V-9.60001H159.21V10.4ZM212.025 -6.55526L112.125 96.6447L126.495 110.555L226.395 7.35525L212.025 -6.55526Z" fill="white"/>
</svg>
