<svg width="45" height="59" viewBox="0 0 45 59" fill="none" xmlns="http://www.w3.org/2000/svg">
<g clip-path="url(#clip0_68_744)">
<path d="M7.44545 52.9415C6.4217 52.9415 5.58409 52.12 5.58409 51.1159V7.30227C5.58409 6.29821 6.4217 5.4767 7.44545 5.4767H26.0591V14.6045C26.0591 16.6241 27.7227 18.2557 29.7818 18.2557H39.0886V51.1159C39.0886 52.12 38.251 52.9415 37.2273 52.9415H7.44545ZM7.44545 0C3.33882 0 0 3.27461 0 7.30227V51.1159C0 55.1436 3.33882 58.4182 7.44545 58.4182H37.2273C41.3339 58.4182 44.6727 55.1436 44.6727 51.1159V17.6281C44.6727 15.6885 43.8933 13.8287 42.4973 12.4595L31.9573 2.13363C30.5613 0.764457 28.6766 0 26.6989 0H7.44545ZM13.9602 29.2091C12.413 29.2091 11.1682 30.4299 11.1682 31.9474C11.1682 33.4649 12.413 34.6858 13.9602 34.6858H30.7125C32.2598 34.6858 33.5045 33.4649 33.5045 31.9474C33.5045 30.4299 32.2598 29.2091 30.7125 29.2091H13.9602ZM13.9602 40.1625C12.413 40.1625 11.1682 41.3834 11.1682 42.9009C11.1682 44.4184 12.413 45.6392 13.9602 45.6392H30.7125C32.2598 45.6392 33.5045 44.4184 33.5045 42.9009C33.5045 41.3834 32.2598 40.1625 30.7125 40.1625H13.9602Z" fill="#F5F5F5"/>
</g>
<defs>
<clipPath id="clip0_68_744">
<rect width="44.6727" height="58.4182" fill="white"/>
</clipPath>
</defs>
</svg>
