<svg width="54" height="62" viewBox="0 0 54 62" fill="none" xmlns="http://www.w3.org/2000/svg">
<g clip-path="url(#clip0_68_742)">
<path d="M7.2409 13.6763C6.33528 13.6763 5.59431 14.5461 5.59431 15.6093V18.2792L23.3466 35.3858C25.4769 37.4396 28.5334 37.4396 30.6637 35.3858L48.4057 18.2792V15.6093C48.4057 14.5461 47.6647 13.6763 46.7591 13.6763H7.2409ZM5.59431 25.7814V46.5365C5.59431 47.5997 6.33528 48.4695 7.2409 48.4695H46.7591C47.6647 48.4695 48.4057 47.5997 48.4057 46.5365V25.7814L33.7922 39.8678C29.8404 43.6733 24.1493 43.6733 20.2078 39.8678L5.59431 25.7814ZM0.654541 15.6093C0.654541 11.3447 3.60811 7.87744 7.2409 7.87744H46.7591C50.3919 7.87744 53.3455 11.3447 53.3455 15.6093V46.5365C53.3455 50.8011 50.3919 54.2683 46.7591 54.2683H7.2409C3.60811 54.2683 0.654541 50.8011 0.654541 46.5365V15.6093Z" fill="#F5F5F5"/>
</g>
<defs>
<clipPath id="clip0_68_742">
<rect width="52.6909" height="61.8545" fill="white" transform="translate(0.654541 0.145508)"/>
</clipPath>
</defs>
</svg>
